<svg version="1.1" xmlns="http://www.w3.org/2000/svg" xmlns:xlink="http://www.w3.org/1999/xlink">
    <symbol id="vk" width="21" height="17" viewBox="0 0 21 14" fill="none" xmlns="http://www.w3.org/2000/svg">
        <path d="M19.9733 1.86668C20.125 2.33391 19.6304 3.40709 18.4895 5.08622C18.3312 5.31983 18.1169 5.63011 17.8465 6.01703C17.5827 6.38936 17.4013 6.65218 17.3024 6.80549C17.2035 6.9588 17.1029 7.13949 17.0007 7.34756C16.8985 7.55562 16.8589 7.70893 16.882 7.80749C16.9051 7.90605 16.9479 8.03198 17.0106 8.18529C17.0732 8.33861 17.1804 8.49557 17.3321 8.65618C17.4838 8.81679 17.6717 9.01026 17.8959 9.23657C17.9223 9.25117 17.9388 9.26577 17.9454 9.28038C18.8753 10.2367 19.5051 11.0435 19.8348 11.7005C19.8546 11.737 19.876 11.7826 19.8991 11.8374C19.9222 11.8921 19.9453 11.9889 19.9684 12.1276C19.9914 12.2663 19.9898 12.3904 19.9634 12.4999C19.937 12.6094 19.8546 12.7098 19.7161 12.8011C19.5776 12.8923 19.3831 12.9379 19.1325 12.9379L16.6 12.9817C16.4418 13.0183 16.2571 13 16.0461 12.927C15.8351 12.854 15.6636 12.7737 15.5317 12.6861L15.3338 12.5547C15.136 12.4014 14.9052 12.1677 14.6414 11.8538C14.3776 11.5399 14.1517 11.257 13.9638 11.0051C13.7758 10.7533 13.5747 10.5415 13.3603 10.37C13.146 10.1984 12.9597 10.1418 12.8014 10.2002C12.7816 10.2075 12.7553 10.2203 12.7223 10.2386C12.6893 10.2568 12.6333 10.3098 12.5541 10.3974C12.475 10.485 12.4041 10.5926 12.3414 10.7204C12.2788 10.8482 12.2227 11.038 12.1733 11.2898C12.1238 11.5417 12.1024 11.8246 12.109 12.1385C12.109 12.248 12.0974 12.3484 12.0744 12.4397C12.0513 12.5309 12.0265 12.5985 12.0002 12.6423L11.9606 12.697C11.8419 12.8357 11.6671 12.916 11.4363 12.9379H10.2987C9.83047 12.9671 9.34904 12.9069 8.85443 12.7573C8.35982 12.6076 7.92621 12.4141 7.5536 12.1769C7.181 11.9396 6.84136 11.6987 6.5347 11.4541C6.22804 11.2095 5.99558 10.9997 5.8373 10.8244L5.59 10.5616C5.52405 10.4886 5.43337 10.3791 5.31796 10.2331C5.20255 10.0871 4.96678 9.75491 4.61066 9.23657C4.25454 8.71823 3.90502 8.16704 3.56209 7.583C3.21916 6.99896 2.81522 6.22875 2.35029 5.27238C1.88535 4.31601 1.45504 3.32314 1.05935 2.29376C1.01978 2.17695 1 2.07839 1 1.99809C1 1.91778 1.00989 1.85938 1.02968 1.82287L1.06925 1.75717C1.16817 1.61846 1.35612 1.5491 1.6331 1.5491L4.34357 1.5272C4.42271 1.5418 4.49855 1.56553 4.5711 1.59838C4.64364 1.63124 4.6964 1.66226 4.72937 1.69147L4.77883 1.72432C4.88435 1.80462 4.96349 1.92143 5.01625 2.07474C5.14814 2.43977 5.29982 2.81757 5.47129 3.20815C5.64275 3.59873 5.77795 3.89623 5.87687 4.10064L6.03515 4.41822C6.2264 4.85625 6.41105 5.23588 6.58911 5.5571C6.76717 5.87832 6.9271 6.12837 7.06888 6.30723C7.21067 6.48609 7.34752 6.62663 7.47941 6.72884C7.61131 6.83104 7.72342 6.88215 7.81575 6.88215C7.90808 6.88215 7.99711 6.8639 8.08284 6.82739C8.09603 6.82009 8.11251 6.80184 8.1323 6.77264C8.15208 6.74344 8.19165 6.66313 8.25101 6.53172C8.31036 6.40031 8.35487 6.22875 8.38455 6.01703C8.41423 5.80532 8.44555 5.50965 8.47853 5.13002C8.5115 4.75039 8.5115 4.29411 8.47853 3.76117C8.46534 3.46915 8.43566 3.20268 8.3895 2.96176C8.34333 2.72084 8.29717 2.55293 8.25101 2.45802L8.19165 2.32661C8.02678 2.07839 7.7465 1.92143 7.35081 1.85573C7.26508 1.84113 7.28157 1.75352 7.40027 1.59291C7.50579 1.4542 7.63109 1.34469 7.77618 1.26438C8.1257 1.07457 8.91379 0.986963 10.1404 1.00156C10.6812 1.00886 11.1263 1.05632 11.4759 1.14392C11.6078 1.18043 11.7182 1.22971 11.8073 1.29176C11.8963 1.35382 11.9639 1.44142 12.0101 1.55458C12.0562 1.66774 12.0908 1.78455 12.1139 1.90501C12.137 2.02546 12.1485 2.19155 12.1485 2.40327C12.1485 2.61498 12.1452 2.81575 12.1387 3.00556C12.1321 3.19538 12.1238 3.45272 12.1139 3.77759C12.104 4.10247 12.0991 4.40362 12.0991 4.68104C12.0991 4.76134 12.0958 4.91465 12.0892 5.14097C12.0826 5.36729 12.0809 5.5425 12.0842 5.66661C12.0875 5.79072 12.0991 5.93855 12.1189 6.11012C12.1387 6.28168 12.1766 6.42404 12.2326 6.5372C12.2887 6.65036 12.3629 6.73979 12.4552 6.80549C12.508 6.82009 12.564 6.83469 12.6234 6.8493C12.6827 6.8639 12.7685 6.82374 12.8806 6.72884C12.9927 6.63393 13.118 6.508 13.2565 6.35103C13.395 6.19407 13.5664 5.9495 13.7709 5.61733C13.9753 5.28516 14.1995 4.89275 14.4435 4.44012C14.8392 3.68086 15.1921 2.85955 15.502 1.97619C15.5284 1.90318 15.5614 1.8393 15.6009 1.78455C15.6405 1.72979 15.6768 1.69147 15.7097 1.66956L15.7493 1.63671L15.7988 1.60933L15.9274 1.57648L16.1252 1.57101L18.9742 1.5491C19.2314 1.5126 19.4424 1.52173 19.6073 1.57648C19.7722 1.63124 19.8744 1.69147 19.9139 1.75717L19.9733 1.86668Z" stroke="#0077FF" stroke-width="1.2"/>
    </symbol>

    <symbol id="viber" width="21" height="17" viewBox="0 0 15 16" fill="none" xmlns="http://www.w3.org/2000/svg">
        <path d="M13.3058 1.55762C12.9137 1.19436 11.3255 0.0265983 7.7888 0.0112681C7.7888 0.0112681 3.61547 -0.241347 1.58251 1.6456C0.451702 2.78936 0.0556546 4.46435 0.0101849 6.54193C-0.0352848 8.6195 -0.0860265 12.5134 3.6247 13.5718H3.62799L3.6247 15.1842C3.6247 15.1842 3.60031 15.8374 4.0247 15.9687C4.53738 16.1313 4.84052 15.6341 5.33146 15.0995C5.60032 14.8056 5.97067 14.375 6.25205 14.0464C7.86458 14.1975 9.49076 14.0719 11.062 13.6751L10.9631 13.6965C11.4758 13.5278 14.3766 13.1526 14.8458 9.25937C15.3361 5.24019 14.6125 2.70471 13.3058 1.55762ZM13.7354 8.96609C13.3354 12.2154 10.9855 12.4221 10.5532 12.562C9.60956 12.8046 8.5262 12.9433 7.41054 12.9433C7.09028 12.9433 6.77265 12.9319 6.45831 12.9093L6.50049 12.912C6.50049 12.912 4.89389 14.8709 4.39373 15.3801C4.2303 15.5454 4.0504 15.5321 4.05369 15.2021C4.05369 14.9869 4.06621 12.524 4.06621 12.524C0.92485 11.6429 1.10673 8.32623 1.14363 6.59392C1.18054 4.8616 1.50212 3.4379 2.45962 2.48209C4.18088 0.904418 7.72422 1.13837 7.72422 1.13837C10.718 1.15103 12.1513 2.06351 12.4847 2.36945C13.5878 3.32592 14.1499 5.61345 13.7354 8.96543V8.96609ZM9.44482 6.44128V6.45061C9.44343 6.50252 9.42239 6.5519 9.38605 6.58857C9.3497 6.62525 9.30083 6.64641 9.24951 6.64769C9.19819 6.64897 9.14834 6.63028 9.11025 6.59547C9.07216 6.56066 9.04874 6.51238 9.04482 6.46061V6.45994C9.05823 6.32078 9.04163 6.18033 8.99617 6.04829C8.9507 5.91624 8.87745 5.79575 8.78148 5.69512C8.6855 5.5945 8.56907 5.51613 8.44024 5.46544C8.31141 5.41474 8.17323 5.39293 8.03526 5.40149H8.03789C7.98668 5.39748 7.93895 5.37373 7.90456 5.33514C7.87017 5.29655 7.85175 5.24607 7.8531 5.19414C7.85446 5.1422 7.87548 5.09278 7.91183 5.05607C7.94818 5.01937 7.99709 4.99819 8.04844 4.99691H8.05964H8.05898L8.10445 4.99624C8.28843 4.99618 8.47045 5.03437 8.63923 5.10845C8.808 5.18252 8.95992 5.29089 9.08555 5.42684C9.21118 5.56278 9.30784 5.7234 9.36953 5.89871C9.43122 6.07402 9.45662 6.26029 9.44416 6.44595V6.44195L9.44482 6.44128ZM10.0715 6.79521C10.1025 5.47015 9.28403 4.43303 7.73015 4.31705C7.70319 4.3162 7.67667 4.30985 7.6522 4.29838C7.62772 4.28691 7.60579 4.27056 7.58771 4.2503C7.56963 4.23005 7.55579 4.20632 7.547 4.18052C7.53821 4.15472 7.53467 4.1274 7.53658 4.10018C7.53849 4.07297 7.54581 4.04642 7.55811 4.02214C7.57041 3.99785 7.58743 3.97633 7.60815 3.95887C7.62888 3.9414 7.65287 3.92834 7.67871 3.92049C7.70454 3.91263 7.73167 3.91013 7.75848 3.91313H7.75782H7.76903C8.13779 3.91312 8.50267 3.98935 8.84125 4.13715C9.17983 4.28494 9.48497 4.50117 9.73794 4.77258C9.9909 5.04398 10.1863 5.36481 10.3123 5.71538C10.4382 6.06596 10.4919 6.43886 10.4702 6.8112L10.4708 6.80387C10.4673 6.85553 10.4444 6.90386 10.4067 6.93894C10.3691 6.97402 10.3195 6.99319 10.2684 6.99251C10.2172 6.99183 10.1682 6.97135 10.1314 6.93527C10.0947 6.8992 10.073 6.85028 10.0708 6.79854V6.79321L10.0715 6.79521ZM11.5213 7.21446V7.21579C11.5186 7.26745 11.4965 7.31613 11.4595 7.35184C11.4225 7.38755 11.3733 7.40758 11.3222 7.40784C11.271 7.40809 11.2217 7.38855 11.1844 7.35321C11.147 7.31788 11.1244 7.26942 11.1213 7.21779C11.1054 4.67031 9.42571 3.28326 7.39011 3.2686C7.36389 3.2686 7.33793 3.26338 7.3137 3.25323C7.28948 3.24308 7.26747 3.2282 7.24892 3.20945C7.23038 3.19069 7.21568 3.16843 7.20564 3.14393C7.19561 3.11942 7.19044 3.09316 7.19044 3.06664C7.19044 3.04012 7.19561 3.01386 7.20564 2.98935C7.21568 2.96485 7.23038 2.94259 7.24892 2.92383C7.26747 2.90508 7.28948 2.8902 7.3137 2.88005C7.33793 2.86991 7.36389 2.86468 7.39011 2.86468C9.66953 2.88068 11.5015 4.47168 11.5199 7.21379L11.5213 7.21446ZM11.1753 10.2792V10.2852C10.8419 10.879 10.2178 11.5349 9.57529 11.3256L9.56936 11.3163C8.42384 10.8899 7.35008 10.2876 6.38583 9.53065L6.41284 9.55064C5.93303 9.16529 5.49776 8.72638 5.11531 8.24224L5.10279 8.22558C4.7565 7.78467 4.44745 7.31512 4.1789 6.82187L4.15254 6.76921C3.83481 6.2394 3.57139 5.67816 3.36637 5.09422L3.34661 5.0289C3.13969 4.37904 3.78483 3.74783 4.37528 3.41057H4.38121C4.49737 3.33536 4.63686 3.30609 4.77301 3.32834C4.90917 3.3506 5.03244 3.42282 5.11926 3.53121L5.11992 3.53254C5.11992 3.53254 5.50279 3.99445 5.66688 4.22307C5.82108 4.43569 6.02866 4.77629 6.13607 4.96625C6.21695 5.09605 6.24986 5.25059 6.229 5.40255C6.20814 5.55452 6.13485 5.69414 6.02207 5.79675L6.02141 5.79741L5.65106 6.09735C5.59332 6.15372 5.5487 6.22238 5.52043 6.29835C5.49216 6.37432 5.48096 6.4557 5.48764 6.53659V6.53459C5.67102 7.15268 6.00199 7.71562 6.45134 8.17373C6.9007 8.63183 7.45463 8.97103 8.06425 9.16139L8.09193 9.16872C8.17151 9.17507 8.25151 9.1636 8.32622 9.13515C8.40093 9.1067 8.46853 9.06195 8.52422 9.00409L8.82076 8.6295C8.92263 8.51492 9.06136 8.44059 9.21231 8.41972C9.36325 8.39885 9.51662 8.43279 9.64515 8.51552L9.64251 8.51419C10.1783 8.82279 10.6415 9.16205 11.0639 9.54664L11.0567 9.53998C11.1638 9.6264 11.2352 9.75023 11.2566 9.88714C11.2781 10.024 11.2481 10.1641 11.1727 10.2798L11.174 10.2778L11.1753 10.2792Z" fill="#675DA9"/>
    </symbol>

    <symbol id="telegramm" width="21" height="17" viewBox="0 0 18 15" fill="none" xmlns="http://www.w3.org/2000/svg">
        <path d="M16.2793 1C16.7723 1 17.1443 1.41886 16.9453 2.19794L14.532 13.214C14.3633 13.9973 13.8746 14.1857 13.1999 13.8213L7.44327 9.70393C7.42094 9.68842 7.40275 9.66798 7.39021 9.64431C7.37766 9.62064 7.37112 9.59441 7.37112 9.5678C7.37112 9.54119 7.37766 9.51497 7.39021 9.4913C7.40275 9.46762 7.42094 9.44719 7.44327 9.43167L14.0908 3.61788C14.3936 3.35819 14.0259 3.23253 13.628 3.46709L5.28508 8.56463C5.25978 8.58061 5.23105 8.5908 5.20107 8.59443C5.1711 8.59806 5.14066 8.59503 5.11208 8.58557L1.56989 7.50072C0.782732 7.27873 0.782732 6.75515 1.74721 6.38237L15.9203 1.08796C16.0327 1.03574 16.1548 1.00583 16.2793 1V1Z" stroke="#139BD0" stroke-width="1.2" stroke-linecap="round" stroke-linejoin="round"/>
    </symbol>

    <symbol id="instagramm" width="21" height="17" viewBox="0 0 16 16" fill="none" xmlns="http://www.w3.org/2000/svg">
        <path fill-rule="evenodd" clip-rule="evenodd" d="M26.4608 7.45925C26.4608 8.51975 25.601 9.37925 24.5408 9.37925C23.4805 9.37925 22.6208 8.51975 22.6208 7.45925C22.6208 6.39875 23.4805 5.53925 24.5408 5.53925C25.6012 5.53925 26.4608 6.39875 26.4608 7.45925ZM16 21.3333C13.0545 21.3333 10.6667 18.9455 10.6667 16C10.6667 13.0545 13.0545 10.6667 16 10.6667C18.9455 10.6667 21.3333 13.0545 21.3333 16C21.3333 18.9455 18.9455 21.3333 16 21.3333ZM16 7.78375C11.4622 7.78375 7.78375 11.4622 7.78375 16C7.78375 20.5378 11.4622 24.2162 16 24.2162C20.5378 24.2162 24.2162 20.5378 24.2162 16C24.2162 11.4622 20.5378 7.78375 16 7.78375ZM16 2.883C20.2723 2.883 20.7782 2.89925 22.4653 2.97625C24.0252 3.0475 24.8725 3.308 25.4363 3.52725C26.183 3.8175 26.716 4.16425 27.276 4.72425C27.836 5.284 28.1827 5.817 28.473 6.564C28.692 7.12775 28.9527 7.975 29.024 9.535C29.101 11.2222 29.1173 11.7282 29.1173 16.0005C29.1173 20.2728 29.101 20.7787 29.024 22.4657C28.9527 24.0257 28.6922 24.873 28.473 25.4368C28.1827 26.1835 27.836 26.7165 27.276 27.2765C26.7162 27.8365 26.1833 28.1832 25.4363 28.4735C24.8725 28.6925 24.0252 28.9532 22.4653 29.0245C20.7782 29.1015 20.2723 29.1178 16 29.1178C11.7275 29.1178 11.2215 29.1015 9.5345 29.0245C7.9745 28.9532 7.12725 28.6927 6.5635 28.4735C5.81675 28.1832 5.28375 27.8365 4.72375 27.2765C4.164 26.7168 3.817 26.1838 3.52675 25.4368C3.30775 24.873 3.047 24.0257 2.97575 22.4657C2.89875 20.7785 2.8825 20.2725 2.8825 16.0005C2.8825 11.7282 2.89875 11.2222 2.97575 9.535C3.047 7.975 3.3075 7.12775 3.52675 6.564C3.817 5.81725 4.16375 5.28425 4.72375 4.72425C5.2835 4.16425 5.8165 3.8175 6.5635 3.52725C7.12725 3.30825 7.9745 3.0475 9.5345 2.97625C11.2218 2.89925 11.7277 2.883 16 2.883ZM16 0C11.6547 0 11.1097 0.0185 9.40325 0.09625C7.70025 0.174 6.537 0.4445 5.5195 0.84C4.46725 1.24875 3.575 1.796 2.6855 2.6855C1.796 3.575 1.24875 4.46725 0.84 5.5195C0.4445 6.53725 0.174 7.70025 0.09625 9.40325C0.0185 11.1097 0 11.6547 0 16C0 20.3452 0.0185 20.8903 0.09625 22.5968C0.174 24.2997 0.4445 25.4627 0.84 26.4805C1.24875 27.5327 1.796 28.425 2.6855 29.3145C3.575 30.204 4.46725 30.751 5.5195 31.16C6.53725 31.5555 7.70025 31.826 9.40325 31.9037C11.1097 31.9815 11.6547 32 16 32C20.3452 32 20.8903 31.9815 22.5968 31.9037C24.2997 31.826 25.4627 31.5555 26.4805 31.16C27.5327 30.751 28.425 30.204 29.3145 29.3145C30.204 28.425 30.751 27.5327 31.16 26.4805C31.5555 25.4627 31.826 24.2997 31.9037 22.5968C31.9815 20.8903 32 20.3452 32 16C32 11.6547 31.9815 11.1097 31.9037 9.40325C31.826 7.70025 31.5555 6.53725 31.16 5.5195C30.751 4.46725 30.204 3.575 29.3145 2.6855C28.425 1.796 27.5327 1.249 26.4805 0.84C25.4627 0.4445 24.2997 0.174 22.5968 0.09625C20.8903 0.0185 20.3452 0 16 0Z" fill="url(#paint0_radial_411_445)"/>
        <defs>
            <radialGradient id="paint0_radial_411_445" cx="0" cy="0" r="1" gradientUnits="userSpaceOnUse" gradientTransform="translate(4.77778 32.1111) scale(40.888)">
                <stop stop-color="#FFB140"/>
                <stop offset="0.2559" stop-color="#FF5445"/>
                <stop offset="0.599" stop-color="#FC2B82"/>
                <stop offset="1" stop-color="#8E40B7"/>
            </radialGradient>
        </defs>
    </symbol>

    <symbol id="email" width="21" height="17" viewBox="0 0 16 13" fill="none" xmlns="http://www.w3.org/2000/svg">
        <path d="M2.4 1H13.6C14.37 1 15 1.61875 15 2.375V10.625C15 11.3813 14.37 12 13.6 12H2.4C1.63 12 1 11.3813 1 10.625V2.375C1 1.61875 1.63 1 2.4 1Z" stroke="#FFDC60" stroke-width="1.4" stroke-linecap="round" stroke-linejoin="round"/>
        <path d="M15 2.37482L8 7.18732L1 2.37482" stroke="#FFDC60" stroke-width="1.4" stroke-linecap="round" stroke-linejoin="round"/>
    </symbol>

    <symbol id="whatsapp" width="21" height="17" viewBox="0 0 16 16" fill="none" xmlns="http://www.w3.org/2000/svg">
        <path d="M13.6625 2.32604C12.9256 1.58572 12.0482 0.99879 11.0812 0.599452C10.1142 0.200115 9.07702 -0.00364426 8.03013 4.93304e-05C3.64339 4.93304e-05 0.0683074 3.55804 0.0642893 7.92602C0.0642893 9.32502 0.431944 10.686 1.12607 11.891L0 16L4.223 14.898C5.39126 15.5309 6.70008 15.8627 8.03013 15.863H8.03415C12.4219 15.863 15.996 12.305 16 7.93302C16.001 6.89107 15.7949 5.85922 15.3935 4.89691C14.9922 3.93461 14.4035 3.06087 13.6615 2.32604H13.6625ZM8.03013 14.521C6.84379 14.5214 5.67926 14.2036 4.65896 13.601L4.41788 13.457L1.91261 14.111L2.58162 11.678L2.42491 11.427C1.76173 10.3773 1.411 9.16205 1.41336 7.92202C1.41336 4.29604 4.38373 1.33805 8.03415 1.33805C8.90381 1.33649 9.76517 1.50632 10.5686 1.83774C11.372 2.16915 12.1016 2.6556 12.7152 3.26904C13.331 3.88009 13.8192 4.60646 14.1516 5.40626C14.484 6.20607 14.6541 7.06347 14.6519 7.92902C14.6479 11.568 11.6775 14.521 8.03013 14.521V14.521ZM11.6615 9.58702C11.4636 9.48802 10.4862 9.00902 10.3024 8.94102C10.1195 8.87602 9.98593 8.84202 9.85535 9.04002C9.72174 9.23702 9.34003 9.68602 9.22551 9.81502C9.111 9.94802 8.99246 9.96302 8.79357 9.86502C8.59568 9.76502 7.95379 9.55702 7.19437 8.88002C6.60171 8.35502 6.20492 7.70503 6.08639 7.50803C5.97187 7.31003 6.07534 7.20403 6.17478 7.10503C6.26218 7.01703 6.37268 6.87303 6.47212 6.75903C6.57257 6.64503 6.60572 6.56103 6.67102 6.42903C6.73631 6.29503 6.70517 6.18103 6.65595 6.08203C6.60572 5.98303 6.20894 5.00603 6.04118 4.61203C5.88046 4.22304 5.71672 4.27704 5.59417 4.27204C5.47966 4.26504 5.34606 4.26504 5.21245 4.26504C5.11156 4.26753 5.01228 4.29076 4.92084 4.33327C4.82939 4.37577 4.74776 4.43663 4.68106 4.51204C4.49824 4.71003 3.98694 5.18903 3.98694 6.16603C3.98694 7.14303 4.70015 8.08202 4.8006 8.21502C4.89904 8.34802 6.2009 10.347 8.19889 11.207C8.67102 11.412 9.04269 11.533 9.333 11.625C9.81014 11.777 10.2411 11.754 10.5846 11.705C10.9663 11.647 11.7609 11.225 11.9287 10.762C12.0934 10.298 12.0934 9.90202 12.0432 9.81902C11.994 9.73502 11.8604 9.68602 11.6615 9.58702V9.58702Z" fill="#52CD5F"/>
    </symbol>

    <symbol id="close" width="19" height="19" viewBox="0 0 19 19" fill="none" xmlns="http://www.w3.org/2000/svg">
        <path d="M18 1L1 18" stroke="white" stroke-width="2" stroke-linecap="round" stroke-linejoin="round"/>
        <path d="M1 1L18 18" stroke="white" stroke-width="2" stroke-linecap="round" stroke-linejoin="round"/>
    </symbol>




</svg>
